<svg width="184" height="166" viewBox="0 0 184 166" fill="none" xmlns="http://www.w3.org/2000/svg">
<circle cx="71.0112" cy="110.949" r="27.5" transform="rotate(109.799 71.0112 110.949)" fill="#D0F6FF"/>
<circle cx="93.0404" cy="102.605" r="33" transform="rotate(109.799 93.0404 102.605)" stroke="#21B7E2" stroke-width="4"/>
<path d="M85.4662 83.9616C93.3609 79.0164 103.77 81.4075 108.715 89.3022" stroke="#21B7E2" stroke-width="4" stroke-linecap="round"/>
<circle cx="111.444" cy="47.0548" r="13.5" transform="rotate(109.799 111.444 47.0548)" fill="#D0F6FF"/>
<circle cx="36.6247" cy="54.1301" r="13.5" transform="rotate(109.799 36.6247 54.1301)" fill="#D0F6FF"/>
<circle cx="122.509" cy="47.3183" r="15" transform="rotate(109.799 122.509 47.3183)" stroke="#21B7E2" stroke-width="4"/>
<circle cx="67.5235" cy="45.06" r="10.5" transform="rotate(109.799 67.5235 45.06)" stroke="#21B7E2" stroke-width="4"/>
<circle cx="160.696" cy="77.8199" r="10.5" transform="rotate(109.799 160.696 77.8199)" stroke="#21B7E2" stroke-width="4"/>
<path d="M114.041 44.2698C115.35 40.6323 118.94 38.5935 122.057 39.7159" stroke="#21B7E2" stroke-width="4" stroke-linecap="round"/>
</svg>
